<svg width="20" height="19" viewBox="0 0 20 19" fill="none" xmlns="http://www.w3.org/2000/svg">
<path d="M16.0953 10.3961L7.25781 9.0127L8.42937 14.2732L16.0953 10.3961Z" fill="#D12053"/>
<path d="M16.0956 10.3959L9.43623 1.15332L7.25977 9.01417L16.0956 10.3959Z" fill="#E2136E"/>
<path d="M7.05289 8.90797L0.0751953 0L9.21269 1.0904L7.05289 8.90797Z" fill="#D12053"/>
<path d="M3.87465 5.18551L0 1.53809H1.01991L3.87465 5.18551Z" fill="#9E1638"/>
<path d="M17.9806 5.90332L16.3407 10.3465L13.6826 6.67409L17.9806 5.90332Z" fill="#D12053"/>
<path d="M9.46094 14.0067L15.8953 11.4247L16.1653 10.604L9.46094 14.0067Z" fill="#E2136E"/>
<path d="M4.31445 18.88L7.07087 9.22119L8.46908 15.5055L4.31445 18.88Z" fill="#9E1638"/>
<path d="M18.2372 5.93799L17.5605 7.77252L20.0003 7.73257L18.2372 5.93799Z" fill="#E2136E"/>
</svg>
